<?xml version="1.0" encoding="UTF-8"?>
<svg width="700pt" height="700pt" version="1.1" viewBox="0 0 700 700" xmlns="http://www.w3.org/2000/svg" xmlns:xlink="http://www.w3.org/1999/xlink">
 <defs>
  <symbol id="d" overflow="visible">
   <path d="m29.312-1.75c-1.5117 0.78125-3.0898 1.3711-4.7344 1.7656-1.6367 0.40625-3.3398 0.60938-5.1094 0.60938-5.3125 0-9.5273-1.4844-12.641-4.4531-3.1055-2.9688-4.6562-7-4.6562-12.094s1.5508-9.125 4.6562-12.094c3.1133-2.9688 7.3281-4.4531 12.641-4.4531 1.7695 0 3.4727 0.19922 5.1094 0.59375 1.6445 0.39844 3.2227 0.99219 4.7344 1.7812v6.5938c-1.5312-1.0391-3.0391-1.8008-4.5156-2.2812-1.4805-0.48828-3.0391-0.73438-4.6719-0.73438-2.9375 0-5.2461 0.94531-6.9219 2.8281-1.6797 1.875-2.5156 4.4648-2.5156 7.7656 0 3.293 0.83594 5.8828 2.5156 7.7656 1.6758 1.875 3.9844 2.8125 6.9219 2.8125 1.6328 0 3.1914-0.23828 4.6719-0.71875 1.4766-0.48828 2.9844-1.2539 4.5156-2.2969z"/>
  </symbol>
  <symbol id="k" overflow="visible">
   <path d="m21.453-17.406c-0.67969-0.3125-1.3516-0.53906-2.0156-0.6875-0.65625-0.15625-1.3203-0.23438-1.9844-0.23438-1.9688 0-3.4844 0.63281-4.5469 1.8906-1.0547 1.2617-1.5781 3.0703-1.5781 5.4219v11.016h-7.6562v-23.922h7.6562v3.9219c0.97656-1.5625 2.1016-2.7031 3.375-3.4219 1.2812-0.71875 2.8125-1.0781 4.5938-1.0781 0.25 0 0.52344 0.011719 0.82812 0.03125 0.30078 0.023438 0.73438 0.070312 1.2969 0.14062z"/>
  </symbol>
  <symbol id="a" overflow="visible">
   <path d="m27.562-12.031v2.1875h-17.891c0.1875 1.793 0.83203 3.1367 1.9375 4.0312 1.1133 0.89844 2.6719 1.3438 4.6719 1.3438 1.6016 0 3.25-0.23438 4.9375-0.70312 1.6875-0.47656 3.4219-1.2031 5.2031-2.1719v5.8906c-1.8047 0.6875-3.6094 1.2031-5.4219 1.5469-1.8125 0.35156-3.6211 0.53125-5.4219 0.53125-4.3359 0-7.7031-1.0977-10.109-3.2969-2.3984-2.207-3.5938-5.2969-3.5938-9.2656 0-3.9062 1.1758-6.9727 3.5312-9.2031 2.3633-2.2383 5.6094-3.3594 9.7344-3.3594 3.7578 0 6.7695 1.1367 9.0312 3.4062 2.2578 2.2617 3.3906 5.2812 3.3906 9.0625zm-7.8594-2.5312c0-1.457-0.42969-2.6289-1.2812-3.5156-0.84375-0.89453-1.9492-1.3438-3.3125-1.3438-1.4922 0-2.6992 0.41797-3.625 1.25-0.91797 0.83594-1.4922 2.0391-1.7188 3.6094z"/>
  </symbol>
  <symbol id="j" overflow="visible">
   <path d="m14.391-10.766c-1.5938 0-2.793 0.27344-3.5938 0.8125-0.80469 0.54297-1.2031 1.3398-1.2031 2.3906 0 0.96875 0.32031 1.7305 0.96875 2.2812 0.64453 0.54297 1.5469 0.8125 2.7031 0.8125 1.4375 0 2.6445-0.51562 3.625-1.5469 0.98828-1.0312 1.4844-2.3203 1.4844-3.875v-0.875zm11.688-2.8906v13.656h-7.7031v-3.5469c-1.0312 1.4492-2.1875 2.5078-3.4688 3.1719s-2.8398 1-4.6719 1c-2.4805 0-4.4961-0.72266-6.0469-2.1719-1.543-1.4453-2.3125-3.3203-2.3125-5.625 0-2.8125 0.96094-4.8672 2.8906-6.1719 1.9375-1.3125 4.9688-1.9688 9.0938-1.9688h4.5156v-0.60938c0-1.207-0.48047-2.0938-1.4375-2.6562-0.94922-0.5625-2.4375-0.84375-4.4688-0.84375-1.6367 0-3.1562 0.16797-4.5625 0.5-1.4062 0.32422-2.7188 0.8125-3.9375 1.4688v-5.8281c1.6445-0.40625 3.2891-0.70703 4.9375-0.90625 1.6562-0.20703 3.3047-0.3125 4.9531-0.3125 4.3203 0 7.4375 0.85547 9.3438 2.5625 1.9141 1.6992 2.875 4.4609 2.875 8.2812z"/>
  </symbol>
  <symbol id="i" overflow="visible">
   <path d="m12.031-30.719v6.7969h7.875v5.4688h-7.875v10.141c0 1.1172 0.21875 1.8711 0.65625 2.2656 0.4375 0.38672 1.3125 0.57812 2.625 0.57812h3.9375v5.4688h-6.5625c-3.0234 0-5.1641-0.62891-6.4219-1.8906-1.2617-1.2578-1.8906-3.3984-1.8906-6.4219v-10.141h-3.7969v-5.4688h3.7969v-6.7969z"/>
  </symbol>
  <symbol id="h" overflow="visible">
   <path d="m19.953-20.422v-12.812h7.6875v33.234h-7.6875v-3.4531c-1.0547 1.4062-2.2148 2.4375-3.4844 3.0938-1.2734 0.65625-2.7422 0.98438-4.4062 0.98438-2.9492 0-5.3711-1.1719-7.2656-3.5156-1.8867-2.3438-2.8281-5.3594-2.8281-9.0469s0.94141-6.7031 2.8281-9.0469c1.8945-2.3438 4.3164-3.5156 7.2656-3.5156 1.6562 0 3.1172 0.33594 4.3906 1 1.2812 0.65625 2.4453 1.6836 3.5 3.0781zm-5.0469 15.484c1.6445 0 2.8945-0.59766 3.75-1.7969 0.86328-1.1953 1.2969-2.9297 1.2969-5.2031 0-2.2812-0.43359-4.0195-1.2969-5.2188-0.85547-1.1953-2.1055-1.7969-3.75-1.7969-1.625 0-2.8711 0.60156-3.7344 1.7969-0.85547 1.1992-1.2812 2.9375-1.2812 5.2188 0 2.2734 0.42578 4.0078 1.2812 5.2031 0.86328 1.1992 2.1094 1.7969 3.7344 1.7969z"/>
  </symbol>
  <symbol id="g" overflow="visible">
   <path d="m16.406-4.9375c1.6328 0 2.8828-0.59766 3.75-1.7969 0.86328-1.1953 1.2969-2.9297 1.2969-5.2031 0-2.2812-0.43359-4.0195-1.2969-5.2188-0.86719-1.1953-2.1172-1.7969-3.75-1.7969-1.6367 0-2.8906 0.60547-3.7656 1.8125-0.875 1.1992-1.3125 2.9336-1.3125 5.2031 0 2.2617 0.4375 3.9961 1.3125 5.2031 0.875 1.1992 2.1289 1.7969 3.7656 1.7969zm-5.0781-15.484c1.0508-1.3945 2.2188-2.4219 3.5-3.0781 1.2812-0.66406 2.7539-1 4.4219-1 2.9453 0 5.3672 1.1719 7.2656 3.5156 1.8945 2.3438 2.8438 5.3594 2.8438 9.0469s-0.94922 6.7031-2.8438 9.0469c-1.8984 2.3438-4.3203 3.5156-7.2656 3.5156-1.668 0-3.1406-0.33594-4.4219-1s-2.4492-1.6914-3.5-3.0781v3.4531h-7.6562v-33.234h7.6562z"/>
  </symbol>
  <symbol id="f" overflow="visible">
   <path d="m0.53125-23.922h7.6562l6.4219 16.234 5.4688-16.234h7.6562l-10.062 26.188c-1.0117 2.6641-2.1953 4.5234-3.5469 5.5781-1.3438 1.0625-3.1211 1.5938-5.3281 1.5938h-4.4219v-5.0156h2.3906c1.3008 0 2.2422-0.21094 2.8281-0.625 0.59375-0.40625 1.0547-1.1484 1.3906-2.2188l0.20312-0.65625z"/>
  </symbol>
  <symbol id="e" overflow="visible">
   <path d="m0.21875-31.891h8.2656l8.4531 23.531 8.4375-23.531h8.2656l-11.812 31.891h-9.7969z"/>
  </symbol>
  <symbol id="p" overflow="visible">
   <path d="m4.0156-31.891h8.2188v31.891h-8.2188z"/>
  </symbol>
  <symbol id="c" overflow="visible">
   <path d="m4.0156-31.891h9.1875l11.594 21.875v-21.875h7.7969v31.891h-9.1875l-11.594-21.875v21.875h-7.7969z"/>
  </symbol>
  <symbol id="o" overflow="visible">
   <path d="m2.4531-31.891h26.812v4.9688l-17.109 20.703h17.594v6.2188h-27.781v-4.9844l17.109-20.688h-16.625z"/>
  </symbol>
  <symbol id="b" overflow="visible">
   <path d="m4.0156-31.891h22.203v6.2188h-13.984v5.9375h13.141v6.2188h-13.141v7.2969h14.453v6.2188h-22.672z"/>
  </symbol>
  <symbol id="n" overflow="visible">
   <path d="m26.219-30.891v6.75c-1.7617-0.78125-3.4766-1.3672-5.1406-1.7656-1.668-0.40625-3.2422-0.60938-4.7188-0.60938-1.9609 0-3.4141 0.27344-4.3594 0.8125-0.9375 0.54297-1.4062 1.3867-1.4062 2.5312 0 0.85547 0.31641 1.5234 0.95312 2 0.63281 0.46875 1.7852 0.875 3.4531 1.2188l3.5 0.70312c3.5391 0.71875 6.0625 1.8047 7.5625 3.25 1.5 1.4492 2.25 3.5117 2.25 6.1875 0 3.5234-1.0469 6.1406-3.1406 7.8594-2.0859 1.7188-5.2734 2.5781-9.5625 2.5781-2.0234 0-4.0547-0.19531-6.0938-0.57812-2.0312-0.38281-4.0625-0.95703-6.0938-1.7188v-6.9375c2.0312 1.0859 3.9922 1.9023 5.8906 2.4531 1.9062 0.54297 3.7422 0.8125 5.5156 0.8125 1.7891 0 3.1602-0.29688 4.1094-0.89062 0.95703-0.60156 1.4375-1.457 1.4375-2.5625 0-1-0.32422-1.7695-0.96875-2.3125-0.64844-0.53906-1.9375-1.0234-3.875-1.4531l-3.1875-0.70312c-3.1875-0.6875-5.5234-1.7734-7-3.2656-1.4688-1.5-2.2031-3.5156-2.2031-6.0469 0-3.1758 1.0234-5.6172 3.0781-7.3281 2.0508-1.707 5-2.5625 8.8438-2.5625 1.75 0 3.5508 0.13281 5.4062 0.39062 1.8516 0.26172 3.7695 0.65625 5.75 1.1875z"/>
  </symbol>
  <symbol id="m" overflow="visible">
   <path d="m0.21875-31.891h29.391v6.2188h-10.578v25.672h-8.2188v-25.672h-10.594z"/>
  </symbol>
  <symbol id="l" overflow="visible">
   <path d="m4.0156-31.891h8.2188v19.109c0 2.6367 0.42969 4.5234 1.2969 5.6562 0.86328 1.1367 2.2695 1.7031 4.2188 1.7031 1.9688 0 3.3789-0.56641 4.2344-1.7031 0.86328-1.1328 1.2969-3.0195 1.2969-5.6562v-19.109h8.2344v19.109c0 4.5234-1.1367 7.8867-3.4062 10.094-2.2617 2.2109-5.7148 3.3125-10.359 3.3125-4.625 0-8.0742-1.1016-10.344-3.3125-2.2617-2.207-3.3906-5.5703-3.3906-10.094z"/>
  </symbol>
 </defs>
 <g>
  <path d="m623.15 490.2c-55.562-12.336-100.45-26.688-138.96-56.629l-11.551-8.9961c5.6641-12.426 8.5977-25.922 8.6094-39.578 0-2.3203-0.92188-4.5469-2.5625-6.1875s-3.8672-2.5625-6.1875-2.5625h-20.695l18.664-70h28.281c2.6562 0 5.1719-1.207 6.832-3.2812l35-43.75c1.2422-1.5508 1.918-3.4805 1.918-5.4688v-113.75c0-2.3203-0.92188-4.5469-2.5625-6.1875s-3.8672-2.5625-6.1875-2.5625h-8.75v-35c-0.007812-5.4258-1.6914-10.719-4.8242-15.152-3.1328-4.4297-7.5625-7.7852-12.676-9.6016v-10.246c-0.007812-5.543-1.7656-10.941-5.0195-15.426-3.2578-4.4844-7.8516-7.8281-13.121-9.5469-1.7734-10.152-7.0664-19.352-14.949-25.984-7.8867-6.6367-17.855-10.281-28.16-10.293h-192.5c-10.305 0.011719-20.273 3.6562-28.16 10.293-7.8828 6.6328-13.176 15.832-14.949 25.984-5.2695 1.7188-9.8633 5.0625-13.121 9.5469-3.2539 4.4844-5.0117 9.8828-5.0195 15.426v10.246c-5.1133 1.8164-9.543 5.1719-12.676 9.6016-3.1328 4.4336-4.8164 9.7266-4.8242 15.152v35h-8.75c-4.832 0-8.75 3.918-8.75 8.75v113.75c0 1.9883 0.67578 3.918 1.918 5.4688l35 43.75c1.6602 2.0742 4.1758 3.2812 6.832 3.2812h28.281l18.664 70h-20.695c-4.832 0-8.75 3.918-8.75 8.75 0.011719 13.656 2.9453 27.152 8.6094 39.578l-11.551 8.9961c-38.5 29.941-83.395 44.293-138.96 56.629-4.0078 0.88672-6.8555 4.4414-6.8516 8.5469v52.5c0 2.3203 0.92188 4.5469 2.5625 6.1875s3.8672 2.5625 6.1875 2.5625h542.5c2.3203 0 4.5469-0.92188 6.1875-2.5625s2.5625-3.8672 2.5625-6.1875v-52.5c0.003906-4.1055-2.8438-7.6602-6.8516-8.5469zm-313.51-341.45h80.727l-11.672 35h-57.383zm154.11-17.5h-227.5v-36.129c75.496-10.098 152-10.098 227.5 0zm-54.941 17.5h116.19v70h-39.551l-32.375-40.469c-1.6602-2.0742-4.168-3.2812-6.8242-3.2812h-46.191zm-216.31-52.5c0-4.832 3.918-8.75 8.75-8.75 2.3203 0 4.5469-0.92188 6.1875-2.5625s2.5625-3.8672 2.5625-6.1875v-17.5c0-4.832 3.918-8.75 8.75-8.75 2.3203 0 4.5469-0.92188 6.1875-2.5625s2.5625-3.8672 2.5625-6.1875c0-6.9609 2.7656-13.641 7.6875-18.562s11.602-7.6875 18.562-7.6875h192.5c6.9609 0 13.641 2.7656 18.562 7.6875s7.6875 11.602 7.6875 18.562c0 2.3203 0.92188 4.5469 2.5625 6.1875s3.8672 2.5625 6.1875 2.5625 4.5469 0.92188 6.1875 2.5625 2.5625 3.8672 2.5625 6.1875v17.5c0 2.3203 0.92188 4.5469 2.5625 6.1875s3.8672 2.5625 6.1875 2.5625 4.5469 0.92188 6.1875 2.5625 2.5625 3.8672 2.5625 6.1875v35h-26.25v-43.75c0-4.3516-3.1992-8.043-7.5078-8.6641-82.078-11.723-165.41-11.723-247.48 0-4.3086 0.62109-7.5078 4.3125-7.5078 8.6641v43.75h-26.25zm35 52.5h63.691l8.75 26.25h-46.191c-2.6562 0-5.1719 1.207-6.832 3.2812l-32.367 40.469h-39.551v-70zm-52.5 101.93v-14.43h43.75c2.6562 0 5.1719-1.207 6.832-3.2812l32.367-40.469h47.828l0.875 2.7656c1.1953 3.5898 4.5625 6.0039 8.3477 5.9844h70c3.7695 0 7.1133-2.4102 8.3047-5.9844l0.91797-2.7656h47.828l32.375 40.469c1.6602 2.0742 4.168 3.2812 6.8242 3.2812h43.75v14.43l-30.449 38.07h-106.64l-32.664-24.5c-3.1094-2.332-7.3906-2.332-10.5 0l-32.664 24.5h-106.64zm140 55.57c1.8945 0 3.7344-0.61328 5.25-1.75l29.75-22.312 29.75 22.312c1.5156 1.1367 3.3555 1.75 5.25 1.75h67.375l-18.961 71.121c-3.2734 12.223-10.484 23.027-20.52 30.734-10.039 7.707-22.336 11.887-34.992 11.895h-55.805c-12.652-0.011719-24.945-4.1953-34.98-11.902-10.031-7.707-17.242-18.508-20.512-30.727l-18.98-71.121zm-61.039 87.5c5.9844 13.043 15.586 24.098 27.664 31.852 12.074 7.7539 26.121 11.883 40.473 11.898h55.809-0.003906c14.352-0.015625 28.398-4.1445 40.473-11.898 12.078-7.7539 21.68-18.809 27.664-31.852h17.23c-2.1758 19.242-11.355 37.012-25.793 49.922-14.434 12.906-33.113 20.055-52.477 20.078h-70c-19.363-0.023438-38.043-7.1719-52.477-20.078-14.438-12.91-23.617-30.68-25.793-49.922zm358.54 148.75h-525v-36.75c54.738-12.539 99.602-27.695 139.05-58.371l9.5469-7.4219c17.957 25.852 47.43 41.273 78.906 41.293h70c31.477-0.019531 60.949-15.441 78.906-41.293l9.5469 7.4219c39.445 30.676 84.309 45.832 139.05 58.371z"/>
  <path d="m306.25 341.25h87.5v17.5h-87.5z"/>
  <path d="m332.5 376.25h35v17.5h-35z"/>
  <use x="70" y="691.25" xlink:href="#d"/>
  <use x="102.109375" y="691.25" xlink:href="#k"/>
  <use x="123.683594" y="691.25" xlink:href="#a"/>
  <use x="153.355469" y="691.25" xlink:href="#j"/>
  <use x="182.878906" y="691.25" xlink:href="#i"/>
  <use x="203.792969" y="691.25" xlink:href="#a"/>
  <use x="233.464844" y="691.25" xlink:href="#h"/>
  <use x="280.011719" y="691.25" xlink:href="#g"/>
  <use x="311.328125" y="691.25" xlink:href="#f"/>
  <use x="355.078125" y="691.25" xlink:href="#e"/>
  <use x="388.9375" y="691.25" xlink:href="#p"/>
  <use x="405.21875" y="691.25" xlink:href="#c"/>
  <use x="441.832031" y="691.25" xlink:href="#o"/>
  <use x="473.554688" y="691.25" xlink:href="#b"/>
  <use x="503.441406" y="691.25" xlink:href="#c"/>
  <use x="540.054688" y="691.25" xlink:href="#d"/>
  <use x="572.164062" y="691.25" xlink:href="#b"/>
  <use x="617.28125" y="691.25" xlink:href="#n"/>
  <use x="648.789062" y="691.25" xlink:href="#m"/>
  <use x="678.632812" y="691.25" xlink:href="#l"/>
 </g>
</svg>
